G04 (created by PCBNEW (2013-mar-13)-testing) date Thu 16 May 2013 01:29:58 PM EST*
%MOIN*%
G04 Gerber Fmt 3.4, Leading zero omitted, Abs format*
%FSLAX34Y34*%
G01*
G70*
G90*
G04 APERTURE LIST*
%ADD10C,0.006*%
%ADD11C,0.00393701*%
%ADD12C,0.00787402*%
%ADD13C,0.0748031*%
%ADD14C,0.0787402*%
G04 APERTURE END LIST*
G54D10*
G54D11*
X74172Y-46959D02*
X74172Y-46640D01*
X74153Y-46603D01*
X74134Y-46584D01*
X74097Y-46565D01*
X74041Y-46565D01*
X74003Y-46584D01*
X74172Y-46715D02*
X74134Y-46696D01*
X74059Y-46696D01*
X74022Y-46715D01*
X74003Y-46734D01*
X73984Y-46771D01*
X73984Y-46884D01*
X74003Y-46921D01*
X74022Y-46940D01*
X74059Y-46959D01*
X74134Y-46959D01*
X74172Y-46940D01*
X74359Y-46696D02*
X74359Y-46959D01*
X74359Y-47090D02*
X74341Y-47071D01*
X74359Y-47053D01*
X74378Y-47071D01*
X74359Y-47090D01*
X74359Y-47053D01*
X74491Y-46959D02*
X74641Y-46959D01*
X74547Y-47090D02*
X74547Y-46753D01*
X74566Y-46715D01*
X74603Y-46696D01*
X74641Y-46696D01*
X74772Y-46696D02*
X74772Y-47090D01*
X74941Y-46696D02*
X74941Y-46903D01*
X74922Y-46940D01*
X74884Y-46959D01*
X74828Y-46959D01*
X74791Y-46940D01*
X74772Y-46921D01*
X75297Y-46959D02*
X75297Y-46696D01*
X75128Y-46959D02*
X75128Y-46753D01*
X75147Y-46715D01*
X75184Y-46696D01*
X75241Y-46696D01*
X75278Y-46715D01*
X75297Y-46734D01*
X75484Y-46696D02*
X75484Y-47090D01*
X75484Y-46940D02*
X75522Y-46959D01*
X75597Y-46959D01*
X75634Y-46940D01*
X75653Y-46921D01*
X75672Y-46884D01*
X75672Y-46771D01*
X75653Y-46734D01*
X75634Y-46715D01*
X75597Y-46696D01*
X75522Y-46696D01*
X75484Y-46715D01*
X75840Y-46734D02*
X75859Y-46715D01*
X75840Y-46696D01*
X75822Y-46715D01*
X75840Y-46734D01*
X75840Y-46696D01*
X76197Y-46715D02*
X76159Y-46696D01*
X76084Y-46696D01*
X76047Y-46715D01*
X76028Y-46734D01*
X76009Y-46771D01*
X76009Y-46884D01*
X76028Y-46921D01*
X76047Y-46940D01*
X76084Y-46959D01*
X76159Y-46959D01*
X76197Y-46940D01*
X76422Y-46696D02*
X76384Y-46715D01*
X76365Y-46734D01*
X76347Y-46771D01*
X76347Y-46884D01*
X76365Y-46921D01*
X76384Y-46940D01*
X76422Y-46959D01*
X76478Y-46959D01*
X76515Y-46940D01*
X76534Y-46921D01*
X76553Y-46884D01*
X76553Y-46771D01*
X76534Y-46734D01*
X76515Y-46715D01*
X76478Y-46696D01*
X76422Y-46696D01*
X76722Y-46696D02*
X76722Y-46959D01*
X76722Y-46921D02*
X76740Y-46940D01*
X76778Y-46959D01*
X76834Y-46959D01*
X76872Y-46940D01*
X76890Y-46903D01*
X76890Y-46696D01*
X76890Y-46903D02*
X76909Y-46940D01*
X76947Y-46959D01*
X77003Y-46959D01*
X77040Y-46940D01*
X77059Y-46903D01*
X77059Y-46696D01*
X77528Y-47109D02*
X77190Y-46603D01*
X77828Y-46696D02*
X77828Y-47090D01*
X77828Y-46715D02*
X77790Y-46696D01*
X77715Y-46696D01*
X77678Y-46715D01*
X77659Y-46734D01*
X77640Y-46771D01*
X77640Y-46884D01*
X77659Y-46921D01*
X77678Y-46940D01*
X77715Y-46959D01*
X77790Y-46959D01*
X77828Y-46940D01*
X78071Y-46696D02*
X78034Y-46715D01*
X78015Y-46734D01*
X77996Y-46771D01*
X77996Y-46884D01*
X78015Y-46921D01*
X78034Y-46940D01*
X78071Y-46959D01*
X78128Y-46959D01*
X78165Y-46940D01*
X78184Y-46921D01*
X78203Y-46884D01*
X78203Y-46771D01*
X78184Y-46734D01*
X78165Y-46715D01*
X78128Y-46696D01*
X78071Y-46696D01*
X78371Y-46696D02*
X78371Y-46959D01*
X78371Y-46921D02*
X78390Y-46940D01*
X78428Y-46959D01*
X78484Y-46959D01*
X78521Y-46940D01*
X78540Y-46903D01*
X78540Y-46696D01*
X78540Y-46903D02*
X78559Y-46940D01*
X78596Y-46959D01*
X78653Y-46959D01*
X78690Y-46940D01*
X78709Y-46903D01*
X78709Y-46696D01*
X78896Y-46696D02*
X78896Y-46959D01*
X78896Y-47090D02*
X78878Y-47071D01*
X78896Y-47053D01*
X78915Y-47071D01*
X78896Y-47090D01*
X78896Y-47053D01*
X79084Y-46959D02*
X79084Y-46696D01*
X79084Y-46921D02*
X79103Y-46940D01*
X79140Y-46959D01*
X79196Y-46959D01*
X79234Y-46940D01*
X79253Y-46903D01*
X79253Y-46696D01*
X79440Y-46696D02*
X79440Y-46959D01*
X79440Y-47090D02*
X79421Y-47071D01*
X79440Y-47053D01*
X79459Y-47071D01*
X79440Y-47090D01*
X79440Y-47053D01*
X79796Y-46715D02*
X79759Y-46696D01*
X79684Y-46696D01*
X79646Y-46715D01*
X79627Y-46734D01*
X79609Y-46771D01*
X79609Y-46884D01*
X79627Y-46921D01*
X79646Y-46940D01*
X79684Y-46959D01*
X79759Y-46959D01*
X79796Y-46940D01*
X80134Y-46959D02*
X80134Y-46640D01*
X80115Y-46603D01*
X80096Y-46584D01*
X80059Y-46565D01*
X80002Y-46565D01*
X79965Y-46584D01*
X80134Y-46715D02*
X80096Y-46696D01*
X80021Y-46696D01*
X79984Y-46715D01*
X79965Y-46734D01*
X79946Y-46771D01*
X79946Y-46884D01*
X79965Y-46921D01*
X79984Y-46940D01*
X80021Y-46959D01*
X80096Y-46959D01*
X80134Y-46940D01*
X80302Y-46715D02*
X80340Y-46696D01*
X80415Y-46696D01*
X80452Y-46715D01*
X80471Y-46753D01*
X80471Y-46771D01*
X80452Y-46809D01*
X80415Y-46828D01*
X80359Y-46828D01*
X80321Y-46846D01*
X80302Y-46884D01*
X80302Y-46903D01*
X80321Y-46940D01*
X80359Y-46959D01*
X80415Y-46959D01*
X80452Y-46940D01*
X80921Y-47109D02*
X80584Y-46603D01*
X81052Y-46696D02*
X81052Y-47090D01*
X81202Y-47090D01*
X81240Y-47071D01*
X81259Y-47053D01*
X81277Y-47015D01*
X81277Y-46959D01*
X81259Y-46921D01*
X81240Y-46903D01*
X81202Y-46884D01*
X81052Y-46884D01*
X81427Y-46715D02*
X81484Y-46696D01*
X81577Y-46696D01*
X81615Y-46715D01*
X81633Y-46734D01*
X81652Y-46771D01*
X81652Y-46809D01*
X81633Y-46846D01*
X81615Y-46865D01*
X81577Y-46884D01*
X81502Y-46903D01*
X81465Y-46921D01*
X81446Y-46940D01*
X81427Y-46978D01*
X81427Y-47015D01*
X81446Y-47053D01*
X81465Y-47071D01*
X81502Y-47090D01*
X81596Y-47090D01*
X81652Y-47071D01*
X81802Y-47053D02*
X81821Y-47071D01*
X81858Y-47090D01*
X81952Y-47090D01*
X81990Y-47071D01*
X82008Y-47053D01*
X82027Y-47015D01*
X82027Y-46978D01*
X82008Y-46921D01*
X81783Y-46696D01*
X82027Y-46696D01*
X82102Y-46659D02*
X82402Y-46659D01*
X82440Y-46959D02*
X82590Y-46959D01*
X82496Y-47090D02*
X82496Y-46753D01*
X82515Y-46715D01*
X82552Y-46696D01*
X82590Y-46696D01*
X82890Y-46696D02*
X82890Y-46903D01*
X82871Y-46940D01*
X82833Y-46959D01*
X82758Y-46959D01*
X82721Y-46940D01*
X82890Y-46715D02*
X82852Y-46696D01*
X82758Y-46696D01*
X82721Y-46715D01*
X82702Y-46753D01*
X82702Y-46790D01*
X82721Y-46828D01*
X82758Y-46846D01*
X82852Y-46846D01*
X82890Y-46865D01*
X83077Y-46959D02*
X83077Y-46565D01*
X83077Y-46940D02*
X83115Y-46959D01*
X83190Y-46959D01*
X83227Y-46940D01*
X83246Y-46921D01*
X83265Y-46884D01*
X83265Y-46771D01*
X83246Y-46734D01*
X83227Y-46715D01*
X83190Y-46696D01*
X83115Y-46696D01*
X83077Y-46715D01*
G54D12*
X75147Y-49421D02*
X75015Y-49609D01*
X74922Y-49421D02*
X74922Y-49815D01*
X75072Y-49815D01*
X75109Y-49796D01*
X75128Y-49778D01*
X75147Y-49740D01*
X75147Y-49684D01*
X75128Y-49646D01*
X75109Y-49628D01*
X75072Y-49609D01*
X74922Y-49609D01*
X75465Y-49440D02*
X75428Y-49421D01*
X75353Y-49421D01*
X75315Y-49440D01*
X75297Y-49478D01*
X75297Y-49628D01*
X75315Y-49665D01*
X75353Y-49684D01*
X75428Y-49684D01*
X75465Y-49665D01*
X75484Y-49628D01*
X75484Y-49590D01*
X75297Y-49553D01*
X75615Y-49684D02*
X75709Y-49421D01*
X75803Y-49684D01*
X75953Y-49459D02*
X75972Y-49440D01*
X75953Y-49421D01*
X75934Y-49440D01*
X75953Y-49459D01*
X75953Y-49421D01*
X75953Y-49665D02*
X75972Y-49646D01*
X75953Y-49628D01*
X75934Y-49646D01*
X75953Y-49665D01*
X75953Y-49628D01*
X76422Y-49778D02*
X76440Y-49796D01*
X76478Y-49815D01*
X76572Y-49815D01*
X76609Y-49796D01*
X76628Y-49778D01*
X76646Y-49740D01*
X76646Y-49703D01*
X76628Y-49646D01*
X76403Y-49421D01*
X76646Y-49421D01*
X76890Y-49815D02*
X76928Y-49815D01*
X76965Y-49796D01*
X76984Y-49778D01*
X77003Y-49740D01*
X77021Y-49665D01*
X77021Y-49571D01*
X77003Y-49496D01*
X76984Y-49459D01*
X76965Y-49440D01*
X76928Y-49421D01*
X76890Y-49421D01*
X76853Y-49440D01*
X76834Y-49459D01*
X76815Y-49496D01*
X76796Y-49571D01*
X76796Y-49665D01*
X76815Y-49740D01*
X76834Y-49778D01*
X76853Y-49796D01*
X76890Y-49815D01*
X77396Y-49421D02*
X77171Y-49421D01*
X77284Y-49421D02*
X77284Y-49815D01*
X77246Y-49759D01*
X77209Y-49721D01*
X77171Y-49703D01*
X77528Y-49815D02*
X77771Y-49815D01*
X77640Y-49665D01*
X77696Y-49665D01*
X77734Y-49646D01*
X77753Y-49628D01*
X77771Y-49590D01*
X77771Y-49496D01*
X77753Y-49459D01*
X77734Y-49440D01*
X77696Y-49421D01*
X77584Y-49421D01*
X77546Y-49440D01*
X77528Y-49459D01*
X77940Y-49571D02*
X78240Y-49571D01*
X78503Y-49815D02*
X78540Y-49815D01*
X78578Y-49796D01*
X78596Y-49778D01*
X78615Y-49740D01*
X78634Y-49665D01*
X78634Y-49571D01*
X78615Y-49496D01*
X78596Y-49459D01*
X78578Y-49440D01*
X78540Y-49421D01*
X78503Y-49421D01*
X78465Y-49440D01*
X78446Y-49459D01*
X78428Y-49496D01*
X78409Y-49571D01*
X78409Y-49665D01*
X78428Y-49740D01*
X78446Y-49778D01*
X78465Y-49796D01*
X78503Y-49815D01*
X78990Y-49815D02*
X78802Y-49815D01*
X78784Y-49628D01*
X78802Y-49646D01*
X78840Y-49665D01*
X78934Y-49665D01*
X78971Y-49646D01*
X78990Y-49628D01*
X79009Y-49590D01*
X79009Y-49496D01*
X78990Y-49459D01*
X78971Y-49440D01*
X78934Y-49421D01*
X78840Y-49421D01*
X78802Y-49440D01*
X78784Y-49459D01*
X79177Y-49571D02*
X79477Y-49571D01*
X79871Y-49421D02*
X79646Y-49421D01*
X79759Y-49421D02*
X79759Y-49815D01*
X79721Y-49759D01*
X79684Y-49721D01*
X79646Y-49703D01*
X80209Y-49815D02*
X80134Y-49815D01*
X80096Y-49796D01*
X80077Y-49778D01*
X80040Y-49721D01*
X80021Y-49646D01*
X80021Y-49496D01*
X80040Y-49459D01*
X80059Y-49440D01*
X80096Y-49421D01*
X80171Y-49421D01*
X80209Y-49440D01*
X80227Y-49459D01*
X80246Y-49496D01*
X80246Y-49590D01*
X80227Y-49628D01*
X80209Y-49646D01*
X80171Y-49665D01*
X80096Y-49665D01*
X80059Y-49646D01*
X80040Y-49628D01*
X80021Y-49590D01*
X74443Y-52796D02*
X74443Y-53190D01*
X74537Y-53190D01*
X74593Y-53171D01*
X74631Y-53134D01*
X74649Y-53096D01*
X74668Y-53021D01*
X74668Y-52965D01*
X74649Y-52890D01*
X74631Y-52853D01*
X74593Y-52815D01*
X74537Y-52796D01*
X74443Y-52796D01*
X74893Y-52796D02*
X74856Y-52815D01*
X74837Y-52834D01*
X74818Y-52871D01*
X74818Y-52984D01*
X74837Y-53021D01*
X74856Y-53040D01*
X74893Y-53059D01*
X74949Y-53059D01*
X74987Y-53040D01*
X75006Y-53021D01*
X75024Y-52984D01*
X75024Y-52871D01*
X75006Y-52834D01*
X74987Y-52815D01*
X74949Y-52796D01*
X74893Y-52796D01*
X75193Y-52796D02*
X75193Y-53059D01*
X75193Y-53021D02*
X75212Y-53040D01*
X75249Y-53059D01*
X75306Y-53059D01*
X75343Y-53040D01*
X75362Y-53003D01*
X75362Y-52796D01*
X75362Y-53003D02*
X75381Y-53040D01*
X75418Y-53059D01*
X75474Y-53059D01*
X75512Y-53040D01*
X75531Y-53003D01*
X75531Y-52796D01*
X75718Y-52796D02*
X75718Y-53059D01*
X75718Y-53190D02*
X75699Y-53171D01*
X75718Y-53153D01*
X75737Y-53171D01*
X75718Y-53190D01*
X75718Y-53153D01*
X75906Y-53059D02*
X75906Y-52796D01*
X75906Y-53021D02*
X75924Y-53040D01*
X75962Y-53059D01*
X76018Y-53059D01*
X76056Y-53040D01*
X76074Y-53003D01*
X76074Y-52796D01*
X76262Y-52796D02*
X76262Y-53059D01*
X76262Y-53190D02*
X76243Y-53171D01*
X76262Y-53153D01*
X76281Y-53171D01*
X76262Y-53190D01*
X76262Y-53153D01*
X76618Y-52815D02*
X76580Y-52796D01*
X76505Y-52796D01*
X76468Y-52815D01*
X76449Y-52834D01*
X76430Y-52871D01*
X76430Y-52984D01*
X76449Y-53021D01*
X76468Y-53040D01*
X76505Y-53059D01*
X76580Y-53059D01*
X76618Y-53040D01*
X77068Y-52815D02*
X77124Y-52796D01*
X77218Y-52796D01*
X77255Y-52815D01*
X77274Y-52834D01*
X77293Y-52871D01*
X77293Y-52909D01*
X77274Y-52946D01*
X77255Y-52965D01*
X77218Y-52984D01*
X77143Y-53003D01*
X77105Y-53021D01*
X77087Y-53040D01*
X77068Y-53078D01*
X77068Y-53115D01*
X77087Y-53153D01*
X77105Y-53171D01*
X77143Y-53190D01*
X77237Y-53190D01*
X77293Y-53171D01*
X77462Y-53059D02*
X77462Y-52665D01*
X77462Y-53040D02*
X77499Y-53059D01*
X77574Y-53059D01*
X77612Y-53040D01*
X77630Y-53021D01*
X77649Y-52984D01*
X77649Y-52871D01*
X77630Y-52834D01*
X77612Y-52815D01*
X77574Y-52796D01*
X77499Y-52796D01*
X77462Y-52815D01*
X77818Y-52796D02*
X77818Y-53059D01*
X77818Y-53190D02*
X77799Y-53171D01*
X77818Y-53153D01*
X77837Y-53171D01*
X77818Y-53190D01*
X77818Y-53153D01*
X78062Y-52796D02*
X78024Y-52815D01*
X78005Y-52853D01*
X78005Y-53190D01*
X78268Y-52796D02*
X78230Y-52815D01*
X78212Y-52853D01*
X78212Y-53190D01*
X74743Y-52429D02*
X74443Y-52316D01*
X74743Y-52204D01*
X75099Y-52166D02*
X75099Y-52560D01*
X75099Y-52185D02*
X75062Y-52166D01*
X74987Y-52166D01*
X74949Y-52185D01*
X74931Y-52204D01*
X74912Y-52241D01*
X74912Y-52354D01*
X74931Y-52391D01*
X74949Y-52410D01*
X74987Y-52429D01*
X75062Y-52429D01*
X75099Y-52410D01*
X75343Y-52166D02*
X75306Y-52185D01*
X75287Y-52204D01*
X75268Y-52241D01*
X75268Y-52354D01*
X75287Y-52391D01*
X75306Y-52410D01*
X75343Y-52429D01*
X75399Y-52429D01*
X75437Y-52410D01*
X75456Y-52391D01*
X75474Y-52354D01*
X75474Y-52241D01*
X75456Y-52204D01*
X75437Y-52185D01*
X75399Y-52166D01*
X75343Y-52166D01*
X75643Y-52166D02*
X75643Y-52429D01*
X75643Y-52391D02*
X75662Y-52410D01*
X75699Y-52429D01*
X75756Y-52429D01*
X75793Y-52410D01*
X75812Y-52373D01*
X75812Y-52166D01*
X75812Y-52373D02*
X75831Y-52410D01*
X75868Y-52429D01*
X75924Y-52429D01*
X75962Y-52410D01*
X75981Y-52373D01*
X75981Y-52166D01*
X76168Y-52166D02*
X76168Y-52429D01*
X76168Y-52560D02*
X76149Y-52541D01*
X76168Y-52523D01*
X76187Y-52541D01*
X76168Y-52560D01*
X76168Y-52523D01*
X76355Y-52429D02*
X76355Y-52166D01*
X76355Y-52391D02*
X76374Y-52410D01*
X76412Y-52429D01*
X76468Y-52429D01*
X76505Y-52410D01*
X76524Y-52373D01*
X76524Y-52166D01*
X76712Y-52166D02*
X76712Y-52429D01*
X76712Y-52560D02*
X76693Y-52541D01*
X76712Y-52523D01*
X76730Y-52541D01*
X76712Y-52560D01*
X76712Y-52523D01*
X77068Y-52185D02*
X77030Y-52166D01*
X76955Y-52166D01*
X76918Y-52185D01*
X76899Y-52204D01*
X76880Y-52241D01*
X76880Y-52354D01*
X76899Y-52391D01*
X76918Y-52410D01*
X76955Y-52429D01*
X77030Y-52429D01*
X77068Y-52410D01*
X77405Y-52429D02*
X77405Y-52110D01*
X77387Y-52073D01*
X77368Y-52054D01*
X77330Y-52035D01*
X77274Y-52035D01*
X77237Y-52054D01*
X77405Y-52185D02*
X77368Y-52166D01*
X77293Y-52166D01*
X77255Y-52185D01*
X77237Y-52204D01*
X77218Y-52241D01*
X77218Y-52354D01*
X77237Y-52391D01*
X77255Y-52410D01*
X77293Y-52429D01*
X77368Y-52429D01*
X77405Y-52410D01*
X77574Y-52185D02*
X77612Y-52166D01*
X77687Y-52166D01*
X77724Y-52185D01*
X77743Y-52223D01*
X77743Y-52241D01*
X77724Y-52279D01*
X77687Y-52298D01*
X77630Y-52298D01*
X77593Y-52316D01*
X77574Y-52354D01*
X77574Y-52373D01*
X77593Y-52410D01*
X77630Y-52429D01*
X77687Y-52429D01*
X77724Y-52410D01*
X78155Y-52354D02*
X78137Y-52373D01*
X78099Y-52391D01*
X78062Y-52391D01*
X78024Y-52373D01*
X78005Y-52354D01*
X77987Y-52316D01*
X77987Y-52279D01*
X78005Y-52241D01*
X78024Y-52223D01*
X78062Y-52204D01*
X78099Y-52204D01*
X78137Y-52223D01*
X78155Y-52241D01*
X78155Y-52391D02*
X78155Y-52241D01*
X78174Y-52223D01*
X78193Y-52223D01*
X78230Y-52241D01*
X78249Y-52279D01*
X78249Y-52373D01*
X78212Y-52429D01*
X78155Y-52466D01*
X78080Y-52485D01*
X78005Y-52466D01*
X77949Y-52429D01*
X77912Y-52373D01*
X77893Y-52298D01*
X77912Y-52223D01*
X77949Y-52166D01*
X78005Y-52129D01*
X78080Y-52110D01*
X78155Y-52129D01*
X78212Y-52166D01*
X78586Y-52429D02*
X78586Y-52110D01*
X78568Y-52073D01*
X78549Y-52054D01*
X78511Y-52035D01*
X78455Y-52035D01*
X78418Y-52054D01*
X78586Y-52185D02*
X78549Y-52166D01*
X78474Y-52166D01*
X78436Y-52185D01*
X78418Y-52204D01*
X78399Y-52241D01*
X78399Y-52354D01*
X78418Y-52391D01*
X78436Y-52410D01*
X78474Y-52429D01*
X78549Y-52429D01*
X78586Y-52410D01*
X78774Y-52166D02*
X78774Y-52429D01*
X78774Y-52391D02*
X78793Y-52410D01*
X78830Y-52429D01*
X78886Y-52429D01*
X78924Y-52410D01*
X78943Y-52373D01*
X78943Y-52166D01*
X78943Y-52373D02*
X78961Y-52410D01*
X78999Y-52429D01*
X79055Y-52429D01*
X79093Y-52410D01*
X79111Y-52373D01*
X79111Y-52166D01*
X79468Y-52166D02*
X79468Y-52373D01*
X79449Y-52410D01*
X79411Y-52429D01*
X79336Y-52429D01*
X79299Y-52410D01*
X79468Y-52185D02*
X79430Y-52166D01*
X79336Y-52166D01*
X79299Y-52185D01*
X79280Y-52223D01*
X79280Y-52260D01*
X79299Y-52298D01*
X79336Y-52316D01*
X79430Y-52316D01*
X79468Y-52335D01*
X79655Y-52166D02*
X79655Y-52429D01*
X79655Y-52560D02*
X79636Y-52541D01*
X79655Y-52523D01*
X79674Y-52541D01*
X79655Y-52560D01*
X79655Y-52523D01*
X79899Y-52166D02*
X79861Y-52185D01*
X79843Y-52223D01*
X79843Y-52560D01*
X80049Y-52204D02*
X80068Y-52185D01*
X80049Y-52166D01*
X80030Y-52185D01*
X80049Y-52204D01*
X80049Y-52166D01*
X80405Y-52185D02*
X80367Y-52166D01*
X80293Y-52166D01*
X80255Y-52185D01*
X80236Y-52204D01*
X80218Y-52241D01*
X80218Y-52354D01*
X80236Y-52391D01*
X80255Y-52410D01*
X80293Y-52429D01*
X80367Y-52429D01*
X80405Y-52410D01*
X80630Y-52166D02*
X80592Y-52185D01*
X80574Y-52204D01*
X80555Y-52241D01*
X80555Y-52354D01*
X80574Y-52391D01*
X80592Y-52410D01*
X80630Y-52429D01*
X80686Y-52429D01*
X80724Y-52410D01*
X80742Y-52391D01*
X80761Y-52354D01*
X80761Y-52241D01*
X80742Y-52204D01*
X80724Y-52185D01*
X80686Y-52166D01*
X80630Y-52166D01*
X80930Y-52166D02*
X80930Y-52429D01*
X80930Y-52391D02*
X80949Y-52410D01*
X80986Y-52429D01*
X81042Y-52429D01*
X81080Y-52410D01*
X81099Y-52373D01*
X81099Y-52166D01*
X81099Y-52373D02*
X81117Y-52410D01*
X81155Y-52429D01*
X81211Y-52429D01*
X81249Y-52410D01*
X81267Y-52373D01*
X81267Y-52166D01*
X81455Y-52429D02*
X81755Y-52316D01*
X81455Y-52204D01*
%LPC*%
G54D13*
X74196Y-51340D03*
X75180Y-48659D03*
X75180Y-51340D03*
X74196Y-49490D03*
X74196Y-50509D03*
X74196Y-48659D03*
X83528Y-48709D03*
X82544Y-51390D03*
X82544Y-48709D03*
X83528Y-50559D03*
X83528Y-49540D03*
X83528Y-51390D03*
G54D14*
X78177Y-51207D03*
X78177Y-48451D03*
M02*
