M48
INCH,TZ
T1C0.020
T2C0.035
T3C0.063
T4C0.087
%
G90
G05
T1
X76850Y-48575
X78750Y-51725
X78775Y-50525
X80550Y-50100
X81225Y-50150
X81475Y-47450
X81550Y-49150
X81900Y-49550
T2
X74196Y-48659
X74196Y-49490
X74196Y-50510
X74196Y-51341
X75180Y-48659
X75180Y-51341
X82545Y-48709
X82545Y-51391
X83529Y-48709
X83529Y-49540
X83529Y-50560
X83529Y-51391
T3
X78228Y-48377
X78228Y-51133
T4
X72700Y-50000
X73015Y-47441
X73015Y-52559
X84710Y-47491
X84710Y-52609
X85025Y-50050
T0
M30
