G04 (created by PCBNEW (2013-mar-13)-testing) date Wed 12 Jun 2013 11:52:51 PM EST*
%MOIN*%
G04 Gerber Fmt 3.4, Leading zero omitted, Abs format*
%FSLAX34Y34*%
G01*
G70*
G90*
G04 APERTURE LIST*
%ADD10C,0.005906*%
%ADD11C,0.137795*%
%ADD12C,0.059055*%
%ADD13R,0.045000X0.025000*%
%ADD14R,0.094488X0.094488*%
%ADD15R,0.114173X0.114173*%
%ADD16C,0.062992*%
%ADD17C,0.040000*%
%ADD18C,0.014000*%
%ADD19C,0.020000*%
G04 APERTURE END LIST*
G54D10*
G54D11*
X73014Y-47440D03*
X72700Y-50000D03*
X73014Y-52559D03*
G54D12*
X74196Y-51340D03*
X75180Y-48659D03*
X75180Y-51340D03*
X74196Y-49490D03*
X74196Y-50509D03*
X74196Y-48659D03*
G54D11*
X84710Y-52609D03*
X85025Y-50050D03*
X84710Y-47490D03*
G54D12*
X83528Y-48709D03*
X82544Y-51390D03*
X82544Y-48709D03*
X83528Y-50559D03*
X83528Y-49540D03*
X83528Y-51390D03*
G54D13*
X80800Y-51150D03*
X80800Y-51750D03*
X80800Y-52300D03*
X80800Y-52900D03*
X80750Y-49050D03*
X80750Y-48450D03*
X80750Y-47950D03*
X80750Y-47350D03*
G54D14*
X76810Y-50896D03*
G54D15*
X79664Y-47904D03*
G54D14*
X79723Y-51565D03*
G54D16*
X78227Y-51132D03*
X78227Y-48376D03*
G54D17*
X78775Y-50525D03*
X76850Y-48575D03*
X80550Y-50100D03*
X81550Y-49150D03*
X81225Y-50150D03*
X81900Y-49550D03*
X78750Y-51725D03*
X81475Y-47450D03*
G54D18*
X80700Y-51025D02*
X80250Y-50575D01*
X80250Y-50575D02*
X78825Y-50575D01*
X78825Y-50575D02*
X78775Y-50525D01*
X76850Y-48575D02*
X76765Y-48659D01*
X76765Y-48659D02*
X75180Y-48659D01*
X82544Y-51390D02*
X81065Y-51390D01*
X81065Y-51390D02*
X80700Y-51025D01*
X80800Y-52300D02*
X80800Y-51750D01*
X80800Y-52300D02*
X78213Y-52300D01*
X78213Y-52300D02*
X76810Y-50896D01*
X76760Y-50921D02*
X76760Y-51060D01*
X80750Y-49050D02*
X75675Y-49050D01*
X75675Y-49050D02*
X75234Y-49490D01*
X75234Y-49490D02*
X74196Y-49490D01*
X83528Y-50559D02*
X82259Y-50559D01*
X82259Y-50559D02*
X80750Y-49050D01*
X79614Y-47979D02*
X80720Y-47979D01*
X80720Y-47979D02*
X80750Y-48009D01*
X80750Y-48009D02*
X80750Y-48450D01*
X75180Y-51340D02*
X75180Y-51094D01*
X75180Y-51094D02*
X76175Y-50100D01*
X76175Y-50100D02*
X80550Y-50100D01*
X81550Y-49150D02*
X81990Y-48709D01*
X81990Y-48709D02*
X82544Y-48709D01*
X80725Y-49625D02*
X80725Y-49650D01*
X80725Y-49650D02*
X81225Y-50150D01*
X81900Y-49550D02*
X81909Y-49540D01*
X81909Y-49540D02*
X83528Y-49540D01*
X74196Y-50509D02*
X74940Y-50509D01*
X74940Y-50509D02*
X75825Y-49625D01*
X75825Y-49625D02*
X80725Y-49625D01*
G54D19*
X83528Y-48709D02*
X83528Y-48678D01*
X83528Y-48678D02*
X81800Y-46950D01*
X74950Y-46950D02*
X81800Y-46950D01*
X74950Y-46950D02*
X73650Y-48250D01*
X73650Y-48250D02*
X73650Y-50794D01*
X74196Y-51340D02*
X73650Y-50794D01*
X79723Y-51565D02*
X78909Y-51565D01*
X78909Y-51565D02*
X78750Y-51725D01*
X80750Y-47350D02*
X81375Y-47350D01*
X81375Y-47350D02*
X81475Y-47450D01*
M02*
