G04 (created by PCBNEW (2013-mar-13)-testing) date Thu 16 May 2013 01:29:58 PM EST*
%MOIN*%
G04 Gerber Fmt 3.4, Leading zero omitted, Abs format*
%FSLAX34Y34*%
G01*
G70*
G90*
G04 APERTURE LIST*
%ADD10C,0.006*%
%ADD11C,0.137795*%
%ADD12C,0.0590551*%
%ADD13C,0.0629921*%
%ADD14C,0.04*%
%ADD15C,0.014*%
%ADD16C,0.01*%
G04 APERTURE END LIST*
G54D10*
G54D11*
X73014Y-47440D03*
X72700Y-50000D03*
X73014Y-52559D03*
G54D12*
X74196Y-51340D03*
X75180Y-48659D03*
X75180Y-51340D03*
X74196Y-49490D03*
X74196Y-50509D03*
X74196Y-48659D03*
G54D11*
X84710Y-52609D03*
X85025Y-50050D03*
X84710Y-47490D03*
G54D12*
X83528Y-48709D03*
X82544Y-51390D03*
X82544Y-48709D03*
X83528Y-50559D03*
X83528Y-49540D03*
X83528Y-51390D03*
G54D13*
X78177Y-51207D03*
X78177Y-48451D03*
G54D14*
X78775Y-50525D03*
X76850Y-48575D03*
X80550Y-50100D03*
X81550Y-49150D03*
X81225Y-50150D03*
X81900Y-49550D03*
X81425Y-52850D03*
X81475Y-47450D03*
X77500Y-51750D03*
G54D15*
X78775Y-50525D02*
X76850Y-48600D01*
X76850Y-48600D02*
X76850Y-48575D01*
X80550Y-50100D02*
X81500Y-49150D01*
X81500Y-49150D02*
X81550Y-49150D01*
X81225Y-50150D02*
X81825Y-49550D01*
X81825Y-49550D02*
X81900Y-49550D01*
G54D10*
G36*
X86575Y-53500D02*
X85884Y-53500D01*
X85884Y-49879D01*
X85753Y-49564D01*
X85569Y-49379D01*
X85569Y-47320D01*
X85438Y-47005D01*
X85197Y-46763D01*
X84881Y-46632D01*
X84539Y-46631D01*
X84224Y-46762D01*
X83982Y-47003D01*
X83851Y-47319D01*
X83850Y-47661D01*
X83981Y-47976D01*
X84222Y-48218D01*
X84538Y-48349D01*
X84880Y-48350D01*
X85195Y-48219D01*
X85437Y-47978D01*
X85568Y-47662D01*
X85569Y-47320D01*
X85569Y-49379D01*
X85512Y-49322D01*
X85196Y-49191D01*
X84854Y-49190D01*
X84539Y-49321D01*
X84297Y-49562D01*
X84166Y-49878D01*
X84165Y-50220D01*
X84296Y-50535D01*
X84537Y-50777D01*
X84853Y-50908D01*
X85195Y-50909D01*
X85510Y-50778D01*
X85752Y-50537D01*
X85883Y-50221D01*
X85884Y-49879D01*
X85884Y-53500D01*
X85569Y-53500D01*
X85569Y-52438D01*
X85438Y-52123D01*
X85197Y-51881D01*
X84881Y-51750D01*
X84539Y-51749D01*
X84224Y-51880D01*
X84079Y-52025D01*
X84079Y-51471D01*
X84068Y-51254D01*
X84006Y-51105D01*
X83994Y-51102D01*
X83994Y-50467D01*
X83994Y-49448D01*
X83923Y-49276D01*
X83792Y-49145D01*
X83742Y-49124D01*
X83792Y-49104D01*
X83923Y-48973D01*
X83994Y-48802D01*
X83994Y-48617D01*
X83923Y-48446D01*
X83792Y-48315D01*
X83621Y-48244D01*
X83436Y-48244D01*
X83265Y-48314D01*
X83134Y-48445D01*
X83063Y-48616D01*
X83063Y-48801D01*
X83134Y-48972D01*
X83265Y-49103D01*
X83315Y-49124D01*
X83265Y-49145D01*
X83134Y-49276D01*
X83063Y-49447D01*
X83063Y-49632D01*
X83134Y-49803D01*
X83265Y-49934D01*
X83435Y-50005D01*
X83621Y-50005D01*
X83792Y-49934D01*
X83923Y-49804D01*
X83994Y-49633D01*
X83994Y-49448D01*
X83994Y-50467D01*
X83923Y-50296D01*
X83792Y-50165D01*
X83621Y-50094D01*
X83436Y-50094D01*
X83265Y-50165D01*
X83134Y-50295D01*
X83063Y-50466D01*
X83063Y-50651D01*
X83134Y-50823D01*
X83239Y-50928D01*
X83217Y-51008D01*
X83528Y-51319D01*
X83840Y-51008D01*
X83818Y-50928D01*
X83923Y-50823D01*
X83994Y-50652D01*
X83994Y-50467D01*
X83994Y-51102D01*
X83911Y-51078D01*
X83599Y-51390D01*
X83911Y-51702D01*
X84006Y-51675D01*
X84079Y-51471D01*
X84079Y-52025D01*
X83982Y-52121D01*
X83851Y-52437D01*
X83850Y-52779D01*
X83981Y-53094D01*
X84222Y-53336D01*
X84538Y-53467D01*
X84880Y-53468D01*
X85195Y-53337D01*
X85437Y-53096D01*
X85568Y-52780D01*
X85569Y-52438D01*
X85569Y-53500D01*
X83840Y-53500D01*
X83840Y-51773D01*
X83528Y-51461D01*
X83458Y-51531D01*
X83458Y-51390D01*
X83146Y-51078D01*
X83051Y-51105D01*
X83010Y-51222D01*
X83010Y-48617D01*
X82939Y-48446D01*
X82808Y-48315D01*
X82637Y-48244D01*
X82452Y-48244D01*
X82281Y-48314D01*
X82150Y-48445D01*
X82079Y-48616D01*
X82079Y-48801D01*
X82150Y-48972D01*
X82280Y-49103D01*
X82451Y-49174D01*
X82636Y-49174D01*
X82807Y-49104D01*
X82938Y-48973D01*
X83009Y-48802D01*
X83010Y-48617D01*
X83010Y-51222D01*
X82995Y-51263D01*
X82939Y-51127D01*
X82808Y-50996D01*
X82637Y-50925D01*
X82452Y-50925D01*
X82281Y-50995D01*
X82270Y-51007D01*
X82270Y-49476D01*
X82213Y-49340D01*
X82109Y-49236D01*
X81973Y-49180D01*
X81919Y-49180D01*
X81920Y-49076D01*
X81863Y-48940D01*
X81759Y-48836D01*
X81623Y-48780D01*
X81476Y-48779D01*
X81340Y-48836D01*
X81236Y-48940D01*
X81180Y-49076D01*
X81180Y-49130D01*
X80580Y-49730D01*
X80476Y-49729D01*
X80340Y-49786D01*
X80236Y-49890D01*
X80180Y-50026D01*
X80179Y-50173D01*
X80236Y-50309D01*
X80340Y-50413D01*
X80476Y-50469D01*
X80623Y-50470D01*
X80759Y-50413D01*
X80863Y-50309D01*
X80877Y-50276D01*
X80911Y-50359D01*
X81015Y-50463D01*
X81151Y-50519D01*
X81298Y-50520D01*
X81434Y-50463D01*
X81538Y-50359D01*
X81594Y-50223D01*
X81595Y-50119D01*
X81803Y-49910D01*
X81826Y-49919D01*
X81973Y-49920D01*
X82109Y-49863D01*
X82213Y-49759D01*
X82269Y-49623D01*
X82270Y-49476D01*
X82270Y-51007D01*
X82150Y-51126D01*
X82079Y-51297D01*
X82079Y-51482D01*
X82150Y-51653D01*
X82280Y-51784D01*
X82451Y-51855D01*
X82636Y-51855D01*
X82807Y-51785D01*
X82938Y-51654D01*
X82990Y-51529D01*
X83051Y-51675D01*
X83146Y-51702D01*
X83458Y-51390D01*
X83458Y-51531D01*
X83217Y-51773D01*
X83243Y-51867D01*
X83448Y-51940D01*
X83664Y-51929D01*
X83813Y-51867D01*
X83840Y-51773D01*
X83840Y-53500D01*
X79145Y-53500D01*
X79145Y-50451D01*
X79088Y-50315D01*
X78984Y-50211D01*
X78848Y-50155D01*
X78744Y-50154D01*
X78662Y-50073D01*
X78662Y-48355D01*
X78588Y-48177D01*
X78452Y-48041D01*
X78274Y-47967D01*
X78081Y-47966D01*
X77903Y-48040D01*
X77766Y-48176D01*
X77692Y-48355D01*
X77692Y-48548D01*
X77766Y-48726D01*
X77902Y-48862D01*
X78080Y-48936D01*
X78273Y-48937D01*
X78451Y-48863D01*
X78588Y-48727D01*
X78662Y-48548D01*
X78662Y-48355D01*
X78662Y-50073D01*
X77219Y-48630D01*
X77220Y-48501D01*
X77163Y-48365D01*
X77059Y-48261D01*
X76923Y-48205D01*
X76776Y-48204D01*
X76640Y-48261D01*
X76536Y-48365D01*
X76480Y-48501D01*
X76479Y-48648D01*
X76536Y-48784D01*
X76640Y-48888D01*
X76776Y-48944D01*
X76855Y-48945D01*
X78405Y-50494D01*
X78404Y-50598D01*
X78461Y-50734D01*
X78565Y-50838D01*
X78701Y-50894D01*
X78848Y-50895D01*
X78984Y-50838D01*
X79088Y-50734D01*
X79144Y-50598D01*
X79145Y-50451D01*
X79145Y-53500D01*
X78662Y-53500D01*
X78662Y-51111D01*
X78588Y-50933D01*
X78452Y-50796D01*
X78274Y-50722D01*
X78081Y-50722D01*
X77903Y-50796D01*
X77766Y-50932D01*
X77692Y-51110D01*
X77692Y-51303D01*
X77766Y-51482D01*
X77902Y-51618D01*
X78080Y-51692D01*
X78273Y-51692D01*
X78451Y-51619D01*
X78588Y-51482D01*
X78662Y-51304D01*
X78662Y-51111D01*
X78662Y-53500D01*
X75645Y-53500D01*
X75645Y-51248D01*
X75645Y-48567D01*
X75574Y-48396D01*
X75444Y-48265D01*
X75273Y-48194D01*
X75088Y-48194D01*
X74917Y-48264D01*
X74786Y-48395D01*
X74734Y-48520D01*
X74673Y-48374D01*
X74578Y-48347D01*
X74507Y-48418D01*
X74507Y-48276D01*
X74481Y-48182D01*
X74276Y-48109D01*
X74060Y-48120D01*
X73911Y-48182D01*
X73884Y-48276D01*
X74196Y-48588D01*
X74507Y-48276D01*
X74507Y-48418D01*
X74266Y-48659D01*
X74578Y-48971D01*
X74673Y-48944D01*
X74729Y-48786D01*
X74785Y-48922D01*
X74916Y-49053D01*
X75087Y-49124D01*
X75272Y-49124D01*
X75443Y-49054D01*
X75574Y-48923D01*
X75645Y-48752D01*
X75645Y-48567D01*
X75645Y-51248D01*
X75574Y-51077D01*
X75444Y-50946D01*
X75273Y-50875D01*
X75088Y-50875D01*
X74917Y-50945D01*
X74786Y-51076D01*
X74715Y-51247D01*
X74714Y-51432D01*
X74785Y-51603D01*
X74916Y-51734D01*
X75087Y-51805D01*
X75272Y-51805D01*
X75443Y-51735D01*
X75574Y-51604D01*
X75645Y-51433D01*
X75645Y-51248D01*
X75645Y-53500D01*
X74661Y-53500D01*
X74661Y-51248D01*
X74590Y-51077D01*
X74459Y-50946D01*
X74409Y-50925D01*
X74459Y-50904D01*
X74590Y-50773D01*
X74661Y-50602D01*
X74661Y-50417D01*
X74661Y-49398D01*
X74590Y-49226D01*
X74485Y-49121D01*
X74507Y-49041D01*
X74196Y-48730D01*
X74125Y-48800D01*
X74125Y-48659D01*
X73874Y-48408D01*
X73874Y-47270D01*
X73743Y-46955D01*
X73502Y-46713D01*
X73186Y-46582D01*
X72844Y-46581D01*
X72529Y-46712D01*
X72287Y-46953D01*
X72156Y-47269D01*
X72155Y-47611D01*
X72286Y-47926D01*
X72527Y-48168D01*
X72843Y-48299D01*
X73185Y-48300D01*
X73500Y-48169D01*
X73742Y-47928D01*
X73873Y-47612D01*
X73874Y-47270D01*
X73874Y-48408D01*
X73813Y-48347D01*
X73718Y-48374D01*
X73645Y-48578D01*
X73656Y-48795D01*
X73718Y-48944D01*
X73813Y-48971D01*
X74125Y-48659D01*
X74125Y-48800D01*
X73884Y-49041D01*
X73906Y-49121D01*
X73801Y-49226D01*
X73730Y-49397D01*
X73730Y-49582D01*
X73801Y-49753D01*
X73932Y-49884D01*
X74103Y-49955D01*
X74288Y-49955D01*
X74459Y-49884D01*
X74590Y-49754D01*
X74661Y-49583D01*
X74661Y-49398D01*
X74661Y-50417D01*
X74590Y-50246D01*
X74459Y-50115D01*
X74289Y-50044D01*
X74103Y-50044D01*
X73932Y-50115D01*
X73801Y-50245D01*
X73730Y-50416D01*
X73730Y-50601D01*
X73801Y-50773D01*
X73932Y-50904D01*
X73982Y-50925D01*
X73932Y-50945D01*
X73801Y-51076D01*
X73730Y-51247D01*
X73730Y-51432D01*
X73801Y-51603D01*
X73932Y-51734D01*
X74103Y-51805D01*
X74288Y-51805D01*
X74459Y-51735D01*
X74590Y-51604D01*
X74661Y-51433D01*
X74661Y-51248D01*
X74661Y-53500D01*
X73874Y-53500D01*
X73874Y-52388D01*
X73743Y-52073D01*
X73559Y-51888D01*
X73559Y-49829D01*
X73428Y-49514D01*
X73187Y-49272D01*
X72871Y-49141D01*
X72529Y-49140D01*
X72214Y-49271D01*
X71972Y-49512D01*
X71841Y-49828D01*
X71840Y-50170D01*
X71971Y-50485D01*
X72212Y-50727D01*
X72528Y-50858D01*
X72870Y-50859D01*
X73185Y-50728D01*
X73427Y-50487D01*
X73558Y-50171D01*
X73559Y-49829D01*
X73559Y-51888D01*
X73502Y-51831D01*
X73186Y-51700D01*
X72844Y-51699D01*
X72529Y-51830D01*
X72287Y-52071D01*
X72156Y-52387D01*
X72155Y-52729D01*
X72286Y-53044D01*
X72527Y-53286D01*
X72843Y-53417D01*
X73185Y-53418D01*
X73500Y-53287D01*
X73742Y-53046D01*
X73873Y-52730D01*
X73874Y-52388D01*
X73874Y-53500D01*
X71125Y-53500D01*
X71125Y-46875D01*
X71125Y-46574D01*
X86575Y-46550D01*
X86575Y-53500D01*
X86575Y-53500D01*
G37*
G54D16*
X86575Y-53500D02*
X85884Y-53500D01*
X85884Y-49879D01*
X85753Y-49564D01*
X85569Y-49379D01*
X85569Y-47320D01*
X85438Y-47005D01*
X85197Y-46763D01*
X84881Y-46632D01*
X84539Y-46631D01*
X84224Y-46762D01*
X83982Y-47003D01*
X83851Y-47319D01*
X83850Y-47661D01*
X83981Y-47976D01*
X84222Y-48218D01*
X84538Y-48349D01*
X84880Y-48350D01*
X85195Y-48219D01*
X85437Y-47978D01*
X85568Y-47662D01*
X85569Y-47320D01*
X85569Y-49379D01*
X85512Y-49322D01*
X85196Y-49191D01*
X84854Y-49190D01*
X84539Y-49321D01*
X84297Y-49562D01*
X84166Y-49878D01*
X84165Y-50220D01*
X84296Y-50535D01*
X84537Y-50777D01*
X84853Y-50908D01*
X85195Y-50909D01*
X85510Y-50778D01*
X85752Y-50537D01*
X85883Y-50221D01*
X85884Y-49879D01*
X85884Y-53500D01*
X85569Y-53500D01*
X85569Y-52438D01*
X85438Y-52123D01*
X85197Y-51881D01*
X84881Y-51750D01*
X84539Y-51749D01*
X84224Y-51880D01*
X84079Y-52025D01*
X84079Y-51471D01*
X84068Y-51254D01*
X84006Y-51105D01*
X83994Y-51102D01*
X83994Y-50467D01*
X83994Y-49448D01*
X83923Y-49276D01*
X83792Y-49145D01*
X83742Y-49124D01*
X83792Y-49104D01*
X83923Y-48973D01*
X83994Y-48802D01*
X83994Y-48617D01*
X83923Y-48446D01*
X83792Y-48315D01*
X83621Y-48244D01*
X83436Y-48244D01*
X83265Y-48314D01*
X83134Y-48445D01*
X83063Y-48616D01*
X83063Y-48801D01*
X83134Y-48972D01*
X83265Y-49103D01*
X83315Y-49124D01*
X83265Y-49145D01*
X83134Y-49276D01*
X83063Y-49447D01*
X83063Y-49632D01*
X83134Y-49803D01*
X83265Y-49934D01*
X83435Y-50005D01*
X83621Y-50005D01*
X83792Y-49934D01*
X83923Y-49804D01*
X83994Y-49633D01*
X83994Y-49448D01*
X83994Y-50467D01*
X83923Y-50296D01*
X83792Y-50165D01*
X83621Y-50094D01*
X83436Y-50094D01*
X83265Y-50165D01*
X83134Y-50295D01*
X83063Y-50466D01*
X83063Y-50651D01*
X83134Y-50823D01*
X83239Y-50928D01*
X83217Y-51008D01*
X83528Y-51319D01*
X83840Y-51008D01*
X83818Y-50928D01*
X83923Y-50823D01*
X83994Y-50652D01*
X83994Y-50467D01*
X83994Y-51102D01*
X83911Y-51078D01*
X83599Y-51390D01*
X83911Y-51702D01*
X84006Y-51675D01*
X84079Y-51471D01*
X84079Y-52025D01*
X83982Y-52121D01*
X83851Y-52437D01*
X83850Y-52779D01*
X83981Y-53094D01*
X84222Y-53336D01*
X84538Y-53467D01*
X84880Y-53468D01*
X85195Y-53337D01*
X85437Y-53096D01*
X85568Y-52780D01*
X85569Y-52438D01*
X85569Y-53500D01*
X83840Y-53500D01*
X83840Y-51773D01*
X83528Y-51461D01*
X83458Y-51531D01*
X83458Y-51390D01*
X83146Y-51078D01*
X83051Y-51105D01*
X83010Y-51222D01*
X83010Y-48617D01*
X82939Y-48446D01*
X82808Y-48315D01*
X82637Y-48244D01*
X82452Y-48244D01*
X82281Y-48314D01*
X82150Y-48445D01*
X82079Y-48616D01*
X82079Y-48801D01*
X82150Y-48972D01*
X82280Y-49103D01*
X82451Y-49174D01*
X82636Y-49174D01*
X82807Y-49104D01*
X82938Y-48973D01*
X83009Y-48802D01*
X83010Y-48617D01*
X83010Y-51222D01*
X82995Y-51263D01*
X82939Y-51127D01*
X82808Y-50996D01*
X82637Y-50925D01*
X82452Y-50925D01*
X82281Y-50995D01*
X82270Y-51007D01*
X82270Y-49476D01*
X82213Y-49340D01*
X82109Y-49236D01*
X81973Y-49180D01*
X81919Y-49180D01*
X81920Y-49076D01*
X81863Y-48940D01*
X81759Y-48836D01*
X81623Y-48780D01*
X81476Y-48779D01*
X81340Y-48836D01*
X81236Y-48940D01*
X81180Y-49076D01*
X81180Y-49130D01*
X80580Y-49730D01*
X80476Y-49729D01*
X80340Y-49786D01*
X80236Y-49890D01*
X80180Y-50026D01*
X80179Y-50173D01*
X80236Y-50309D01*
X80340Y-50413D01*
X80476Y-50469D01*
X80623Y-50470D01*
X80759Y-50413D01*
X80863Y-50309D01*
X80877Y-50276D01*
X80911Y-50359D01*
X81015Y-50463D01*
X81151Y-50519D01*
X81298Y-50520D01*
X81434Y-50463D01*
X81538Y-50359D01*
X81594Y-50223D01*
X81595Y-50119D01*
X81803Y-49910D01*
X81826Y-49919D01*
X81973Y-49920D01*
X82109Y-49863D01*
X82213Y-49759D01*
X82269Y-49623D01*
X82270Y-49476D01*
X82270Y-51007D01*
X82150Y-51126D01*
X82079Y-51297D01*
X82079Y-51482D01*
X82150Y-51653D01*
X82280Y-51784D01*
X82451Y-51855D01*
X82636Y-51855D01*
X82807Y-51785D01*
X82938Y-51654D01*
X82990Y-51529D01*
X83051Y-51675D01*
X83146Y-51702D01*
X83458Y-51390D01*
X83458Y-51531D01*
X83217Y-51773D01*
X83243Y-51867D01*
X83448Y-51940D01*
X83664Y-51929D01*
X83813Y-51867D01*
X83840Y-51773D01*
X83840Y-53500D01*
X79145Y-53500D01*
X79145Y-50451D01*
X79088Y-50315D01*
X78984Y-50211D01*
X78848Y-50155D01*
X78744Y-50154D01*
X78662Y-50073D01*
X78662Y-48355D01*
X78588Y-48177D01*
X78452Y-48041D01*
X78274Y-47967D01*
X78081Y-47966D01*
X77903Y-48040D01*
X77766Y-48176D01*
X77692Y-48355D01*
X77692Y-48548D01*
X77766Y-48726D01*
X77902Y-48862D01*
X78080Y-48936D01*
X78273Y-48937D01*
X78451Y-48863D01*
X78588Y-48727D01*
X78662Y-48548D01*
X78662Y-48355D01*
X78662Y-50073D01*
X77219Y-48630D01*
X77220Y-48501D01*
X77163Y-48365D01*
X77059Y-48261D01*
X76923Y-48205D01*
X76776Y-48204D01*
X76640Y-48261D01*
X76536Y-48365D01*
X76480Y-48501D01*
X76479Y-48648D01*
X76536Y-48784D01*
X76640Y-48888D01*
X76776Y-48944D01*
X76855Y-48945D01*
X78405Y-50494D01*
X78404Y-50598D01*
X78461Y-50734D01*
X78565Y-50838D01*
X78701Y-50894D01*
X78848Y-50895D01*
X78984Y-50838D01*
X79088Y-50734D01*
X79144Y-50598D01*
X79145Y-50451D01*
X79145Y-53500D01*
X78662Y-53500D01*
X78662Y-51111D01*
X78588Y-50933D01*
X78452Y-50796D01*
X78274Y-50722D01*
X78081Y-50722D01*
X77903Y-50796D01*
X77766Y-50932D01*
X77692Y-51110D01*
X77692Y-51303D01*
X77766Y-51482D01*
X77902Y-51618D01*
X78080Y-51692D01*
X78273Y-51692D01*
X78451Y-51619D01*
X78588Y-51482D01*
X78662Y-51304D01*
X78662Y-51111D01*
X78662Y-53500D01*
X75645Y-53500D01*
X75645Y-51248D01*
X75645Y-48567D01*
X75574Y-48396D01*
X75444Y-48265D01*
X75273Y-48194D01*
X75088Y-48194D01*
X74917Y-48264D01*
X74786Y-48395D01*
X74734Y-48520D01*
X74673Y-48374D01*
X74578Y-48347D01*
X74507Y-48418D01*
X74507Y-48276D01*
X74481Y-48182D01*
X74276Y-48109D01*
X74060Y-48120D01*
X73911Y-48182D01*
X73884Y-48276D01*
X74196Y-48588D01*
X74507Y-48276D01*
X74507Y-48418D01*
X74266Y-48659D01*
X74578Y-48971D01*
X74673Y-48944D01*
X74729Y-48786D01*
X74785Y-48922D01*
X74916Y-49053D01*
X75087Y-49124D01*
X75272Y-49124D01*
X75443Y-49054D01*
X75574Y-48923D01*
X75645Y-48752D01*
X75645Y-48567D01*
X75645Y-51248D01*
X75574Y-51077D01*
X75444Y-50946D01*
X75273Y-50875D01*
X75088Y-50875D01*
X74917Y-50945D01*
X74786Y-51076D01*
X74715Y-51247D01*
X74714Y-51432D01*
X74785Y-51603D01*
X74916Y-51734D01*
X75087Y-51805D01*
X75272Y-51805D01*
X75443Y-51735D01*
X75574Y-51604D01*
X75645Y-51433D01*
X75645Y-51248D01*
X75645Y-53500D01*
X74661Y-53500D01*
X74661Y-51248D01*
X74590Y-51077D01*
X74459Y-50946D01*
X74409Y-50925D01*
X74459Y-50904D01*
X74590Y-50773D01*
X74661Y-50602D01*
X74661Y-50417D01*
X74661Y-49398D01*
X74590Y-49226D01*
X74485Y-49121D01*
X74507Y-49041D01*
X74196Y-48730D01*
X74125Y-48800D01*
X74125Y-48659D01*
X73874Y-48408D01*
X73874Y-47270D01*
X73743Y-46955D01*
X73502Y-46713D01*
X73186Y-46582D01*
X72844Y-46581D01*
X72529Y-46712D01*
X72287Y-46953D01*
X72156Y-47269D01*
X72155Y-47611D01*
X72286Y-47926D01*
X72527Y-48168D01*
X72843Y-48299D01*
X73185Y-48300D01*
X73500Y-48169D01*
X73742Y-47928D01*
X73873Y-47612D01*
X73874Y-47270D01*
X73874Y-48408D01*
X73813Y-48347D01*
X73718Y-48374D01*
X73645Y-48578D01*
X73656Y-48795D01*
X73718Y-48944D01*
X73813Y-48971D01*
X74125Y-48659D01*
X74125Y-48800D01*
X73884Y-49041D01*
X73906Y-49121D01*
X73801Y-49226D01*
X73730Y-49397D01*
X73730Y-49582D01*
X73801Y-49753D01*
X73932Y-49884D01*
X74103Y-49955D01*
X74288Y-49955D01*
X74459Y-49884D01*
X74590Y-49754D01*
X74661Y-49583D01*
X74661Y-49398D01*
X74661Y-50417D01*
X74590Y-50246D01*
X74459Y-50115D01*
X74289Y-50044D01*
X74103Y-50044D01*
X73932Y-50115D01*
X73801Y-50245D01*
X73730Y-50416D01*
X73730Y-50601D01*
X73801Y-50773D01*
X73932Y-50904D01*
X73982Y-50925D01*
X73932Y-50945D01*
X73801Y-51076D01*
X73730Y-51247D01*
X73730Y-51432D01*
X73801Y-51603D01*
X73932Y-51734D01*
X74103Y-51805D01*
X74288Y-51805D01*
X74459Y-51735D01*
X74590Y-51604D01*
X74661Y-51433D01*
X74661Y-51248D01*
X74661Y-53500D01*
X73874Y-53500D01*
X73874Y-52388D01*
X73743Y-52073D01*
X73559Y-51888D01*
X73559Y-49829D01*
X73428Y-49514D01*
X73187Y-49272D01*
X72871Y-49141D01*
X72529Y-49140D01*
X72214Y-49271D01*
X71972Y-49512D01*
X71841Y-49828D01*
X71840Y-50170D01*
X71971Y-50485D01*
X72212Y-50727D01*
X72528Y-50858D01*
X72870Y-50859D01*
X73185Y-50728D01*
X73427Y-50487D01*
X73558Y-50171D01*
X73559Y-49829D01*
X73559Y-51888D01*
X73502Y-51831D01*
X73186Y-51700D01*
X72844Y-51699D01*
X72529Y-51830D01*
X72287Y-52071D01*
X72156Y-52387D01*
X72155Y-52729D01*
X72286Y-53044D01*
X72527Y-53286D01*
X72843Y-53417D01*
X73185Y-53418D01*
X73500Y-53287D01*
X73742Y-53046D01*
X73873Y-52730D01*
X73874Y-52388D01*
X73874Y-53500D01*
X71125Y-53500D01*
X71125Y-46875D01*
X71125Y-46574D01*
X86575Y-46550D01*
X86575Y-53500D01*
M02*
