G04 (created by PCBNEW (2013-mar-13)-testing) date Wed 12 Jun 2013 11:52:51 PM EST*
%MOIN*%
G04 Gerber Fmt 3.4, Leading zero omitted, Abs format*
%FSLAX34Y34*%
G01*
G70*
G90*
G04 APERTURE LIST*
%ADD10C,0.005906*%
%ADD11C,0.007874*%
%ADD12C,0.005000*%
%ADD13C,0.003937*%
%ADD14C,0.004500*%
%ADD15C,0.153543*%
%ADD16C,0.074803*%
%ADD17R,0.060748X0.040748*%
%ADD18R,0.110236X0.110236*%
%ADD19R,0.129921X0.129921*%
%ADD20C,0.078740*%
G04 APERTURE END LIST*
G54D10*
G54D11*
X79543Y-52859D02*
X79543Y-53140D01*
X79525Y-53196D01*
X79487Y-53234D01*
X79431Y-53253D01*
X79393Y-53253D01*
X79693Y-52859D02*
X79937Y-52859D01*
X79806Y-53009D01*
X79862Y-53009D01*
X79899Y-53028D01*
X79918Y-53046D01*
X79937Y-53084D01*
X79937Y-53178D01*
X79918Y-53215D01*
X79899Y-53234D01*
X79862Y-53253D01*
X79749Y-53253D01*
X79712Y-53234D01*
X79693Y-53215D01*
X76168Y-51884D02*
X76168Y-52165D01*
X76150Y-52221D01*
X76112Y-52259D01*
X76056Y-52278D01*
X76018Y-52278D01*
X76337Y-51921D02*
X76356Y-51903D01*
X76393Y-51884D01*
X76487Y-51884D01*
X76524Y-51903D01*
X76543Y-51921D01*
X76562Y-51959D01*
X76562Y-51996D01*
X76543Y-52053D01*
X76318Y-52278D01*
X76562Y-52278D01*
X81343Y-51859D02*
X81343Y-52140D01*
X81325Y-52196D01*
X81287Y-52234D01*
X81231Y-52253D01*
X81193Y-52253D01*
X81737Y-52253D02*
X81512Y-52253D01*
X81624Y-52253D02*
X81624Y-51859D01*
X81587Y-51915D01*
X81549Y-51953D01*
X81512Y-51971D01*
G54D12*
X70830Y-47245D02*
X70830Y-52755D01*
X70830Y-52755D02*
X72602Y-52755D01*
X72602Y-52755D02*
X75869Y-52755D01*
X75869Y-52755D02*
X75849Y-47245D01*
X75849Y-47245D02*
X73388Y-47245D01*
X73388Y-47245D02*
X72602Y-47245D01*
X72602Y-47245D02*
X70830Y-47245D01*
X86895Y-52805D02*
X86895Y-47295D01*
X86895Y-47295D02*
X85123Y-47295D01*
X85123Y-47295D02*
X81856Y-47295D01*
X81856Y-47295D02*
X81876Y-52805D01*
X81876Y-52805D02*
X84337Y-52805D01*
X84337Y-52805D02*
X85123Y-52805D01*
X85123Y-52805D02*
X86895Y-52805D01*
X81075Y-51253D02*
X81075Y-50975D01*
X81075Y-50975D02*
X80525Y-50975D01*
X80525Y-50975D02*
X80525Y-51253D01*
X81075Y-51925D02*
X81075Y-51647D01*
X81075Y-51925D02*
X80525Y-51925D01*
X80525Y-51925D02*
X80525Y-51647D01*
X81075Y-52403D02*
X81075Y-52125D01*
X81075Y-52125D02*
X80525Y-52125D01*
X80525Y-52125D02*
X80525Y-52403D01*
X81075Y-53075D02*
X81075Y-52797D01*
X81075Y-53075D02*
X80525Y-53075D01*
X80525Y-53075D02*
X80525Y-52797D01*
X80475Y-48947D02*
X80475Y-49225D01*
X80475Y-49225D02*
X81025Y-49225D01*
X81025Y-49225D02*
X81025Y-48947D01*
X80475Y-48275D02*
X80475Y-48553D01*
X80475Y-48275D02*
X81025Y-48275D01*
X81025Y-48275D02*
X81025Y-48553D01*
X80475Y-47847D02*
X80475Y-48125D01*
X80475Y-48125D02*
X81025Y-48125D01*
X81025Y-48125D02*
X81025Y-47847D01*
X80475Y-47175D02*
X80475Y-47453D01*
X80475Y-47175D02*
X81025Y-47175D01*
X81025Y-47175D02*
X81025Y-47453D01*
G54D13*
X77085Y-46802D02*
X79448Y-46802D01*
X79448Y-52510D02*
X79448Y-46802D01*
X77085Y-52510D02*
X77085Y-46802D01*
X79251Y-52510D02*
X79448Y-52510D01*
X77282Y-52510D02*
X77085Y-52510D01*
X77282Y-53495D02*
X77282Y-52510D01*
X79251Y-53495D02*
X79251Y-52510D01*
X79251Y-53495D02*
X77282Y-53495D01*
G54D14*
X80795Y-51564D02*
X80735Y-51470D01*
X80692Y-51564D02*
X80692Y-51367D01*
X80760Y-51367D01*
X80777Y-51376D01*
X80786Y-51385D01*
X80795Y-51404D01*
X80795Y-51432D01*
X80786Y-51451D01*
X80777Y-51460D01*
X80760Y-51470D01*
X80692Y-51470D01*
X80966Y-51564D02*
X80863Y-51564D01*
X80915Y-51564D02*
X80915Y-51367D01*
X80897Y-51395D01*
X80880Y-51414D01*
X80863Y-51423D01*
X80572Y-50709D02*
X80581Y-50700D01*
X80598Y-50690D01*
X80641Y-50690D01*
X80658Y-50700D01*
X80667Y-50709D01*
X80675Y-50728D01*
X80675Y-50747D01*
X80667Y-50776D01*
X80564Y-50890D01*
X80675Y-50890D01*
X80752Y-50890D02*
X80752Y-50690D01*
X80855Y-50890D02*
X80778Y-50776D01*
X80855Y-50690D02*
X80752Y-50804D01*
X80924Y-50709D02*
X80932Y-50700D01*
X80950Y-50690D01*
X80992Y-50690D01*
X81010Y-50700D01*
X81018Y-50709D01*
X81027Y-50728D01*
X81027Y-50747D01*
X81018Y-50776D01*
X80915Y-50890D01*
X81027Y-50890D01*
X80795Y-52714D02*
X80735Y-52620D01*
X80692Y-52714D02*
X80692Y-52517D01*
X80760Y-52517D01*
X80777Y-52526D01*
X80786Y-52535D01*
X80795Y-52554D01*
X80795Y-52582D01*
X80786Y-52601D01*
X80777Y-52610D01*
X80760Y-52620D01*
X80692Y-52620D01*
X80863Y-52535D02*
X80872Y-52526D01*
X80889Y-52517D01*
X80932Y-52517D01*
X80949Y-52526D01*
X80957Y-52535D01*
X80966Y-52554D01*
X80966Y-52573D01*
X80957Y-52601D01*
X80855Y-52714D01*
X80966Y-52714D01*
X80736Y-53365D02*
X80633Y-53365D01*
X80685Y-53365D02*
X80685Y-53165D01*
X80667Y-53194D01*
X80650Y-53213D01*
X80633Y-53222D01*
X80813Y-53365D02*
X80813Y-53165D01*
X80916Y-53365D02*
X80839Y-53251D01*
X80916Y-53165D02*
X80813Y-53279D01*
X80695Y-48814D02*
X80635Y-48720D01*
X80592Y-48814D02*
X80592Y-48617D01*
X80660Y-48617D01*
X80677Y-48626D01*
X80686Y-48635D01*
X80695Y-48654D01*
X80695Y-48682D01*
X80686Y-48701D01*
X80677Y-48710D01*
X80660Y-48720D01*
X80592Y-48720D01*
X80755Y-48617D02*
X80866Y-48617D01*
X80806Y-48692D01*
X80832Y-48692D01*
X80849Y-48701D01*
X80857Y-48710D01*
X80866Y-48729D01*
X80866Y-48776D01*
X80857Y-48795D01*
X80849Y-48804D01*
X80832Y-48814D01*
X80780Y-48814D01*
X80763Y-48804D01*
X80755Y-48795D01*
X79872Y-48959D02*
X79881Y-48950D01*
X79898Y-48940D01*
X79941Y-48940D01*
X79958Y-48950D01*
X79967Y-48959D01*
X79975Y-48978D01*
X79975Y-48997D01*
X79967Y-49026D01*
X79864Y-49140D01*
X79975Y-49140D01*
X80052Y-49140D02*
X80052Y-48940D01*
X80155Y-49140D02*
X80078Y-49026D01*
X80155Y-48940D02*
X80052Y-49054D01*
X80224Y-48959D02*
X80232Y-48950D01*
X80250Y-48940D01*
X80292Y-48940D01*
X80310Y-48950D01*
X80318Y-48959D01*
X80327Y-48978D01*
X80327Y-48997D01*
X80318Y-49026D01*
X80215Y-49140D01*
X80327Y-49140D01*
X80695Y-47714D02*
X80635Y-47620D01*
X80592Y-47714D02*
X80592Y-47517D01*
X80660Y-47517D01*
X80677Y-47526D01*
X80686Y-47535D01*
X80695Y-47554D01*
X80695Y-47582D01*
X80686Y-47601D01*
X80677Y-47610D01*
X80660Y-47620D01*
X80592Y-47620D01*
X80849Y-47582D02*
X80849Y-47714D01*
X80806Y-47507D02*
X80763Y-47648D01*
X80875Y-47648D01*
X80711Y-47065D02*
X80608Y-47065D01*
X80660Y-47065D02*
X80660Y-46865D01*
X80642Y-46894D01*
X80625Y-46913D01*
X80608Y-46922D01*
X80788Y-47065D02*
X80788Y-46865D01*
X80891Y-47065D02*
X80814Y-46951D01*
X80891Y-46865D02*
X80788Y-46979D01*
G54D10*
X80935Y-49837D02*
X81357Y-49837D01*
X81441Y-49865D01*
X81498Y-49921D01*
X81526Y-50006D01*
X81526Y-50062D01*
X80935Y-49612D02*
X80935Y-49247D01*
X81160Y-49443D01*
X81160Y-49359D01*
X81188Y-49303D01*
X81216Y-49275D01*
X81273Y-49247D01*
X81413Y-49247D01*
X81469Y-49275D01*
X81498Y-49303D01*
X81526Y-49359D01*
X81526Y-49528D01*
X81498Y-49584D01*
X81469Y-49612D01*
%LPC*%
G54D15*
X73014Y-47440D03*
X72700Y-50000D03*
X73014Y-52559D03*
G54D16*
X74196Y-51340D03*
X75180Y-48659D03*
X75180Y-51340D03*
X74196Y-49490D03*
X74196Y-50509D03*
X74196Y-48659D03*
G54D15*
X84710Y-52609D03*
X85025Y-50050D03*
X84710Y-47490D03*
G54D16*
X83528Y-48709D03*
X82544Y-51390D03*
X82544Y-48709D03*
X83528Y-50559D03*
X83528Y-49540D03*
X83528Y-51390D03*
G54D17*
X80800Y-51150D03*
X80800Y-51750D03*
X80800Y-52300D03*
X80800Y-52900D03*
X80750Y-49050D03*
X80750Y-48450D03*
X80750Y-47950D03*
X80750Y-47350D03*
G54D18*
X76810Y-50896D03*
G54D19*
X79664Y-47904D03*
G54D18*
X79723Y-51565D03*
G54D20*
X78227Y-51132D03*
X78227Y-48376D03*
M02*
