G04 (created by PCBNEW (2013-mar-13)-testing) date Thu 16 May 2013 01:29:58 PM EST*
%MOIN*%
G04 Gerber Fmt 3.4, Leading zero omitted, Abs format*
%FSLAX34Y34*%
G01*
G70*
G90*
G04 APERTURE LIST*
%ADD10C,0.006*%
%ADD11C,0.00787402*%
%ADD12C,0.005*%
%ADD13C,0.00393701*%
%ADD14C,0.0045*%
%ADD15C,0.153543*%
%ADD16C,0.0748031*%
%ADD17R,0.060748X0.040748*%
%ADD18R,0.110236X0.110236*%
%ADD19R,0.129921X0.129921*%
%ADD20C,0.0787402*%
G04 APERTURE END LIST*
G54D10*
G54D11*
X79543Y-52859D02*
X79543Y-53140D01*
X79525Y-53196D01*
X79487Y-53234D01*
X79431Y-53253D01*
X79393Y-53253D01*
X79693Y-52859D02*
X79937Y-52859D01*
X79806Y-53009D01*
X79862Y-53009D01*
X79899Y-53028D01*
X79918Y-53046D01*
X79937Y-53084D01*
X79937Y-53178D01*
X79918Y-53215D01*
X79899Y-53234D01*
X79862Y-53253D01*
X79749Y-53253D01*
X79712Y-53234D01*
X79693Y-53215D01*
X76168Y-51884D02*
X76168Y-52165D01*
X76150Y-52221D01*
X76112Y-52259D01*
X76056Y-52278D01*
X76018Y-52278D01*
X76337Y-51921D02*
X76356Y-51903D01*
X76393Y-51884D01*
X76487Y-51884D01*
X76524Y-51903D01*
X76543Y-51921D01*
X76562Y-51959D01*
X76562Y-51996D01*
X76543Y-52053D01*
X76318Y-52278D01*
X76562Y-52278D01*
X81343Y-51859D02*
X81343Y-52140D01*
X81325Y-52196D01*
X81287Y-52234D01*
X81231Y-52253D01*
X81193Y-52253D01*
X81737Y-52253D02*
X81512Y-52253D01*
X81624Y-52253D02*
X81624Y-51859D01*
X81587Y-51915D01*
X81549Y-51953D01*
X81512Y-51971D01*
G54D12*
X70830Y-47245D02*
X70830Y-52755D01*
X70830Y-52755D02*
X72602Y-52755D01*
X72602Y-52755D02*
X75869Y-52755D01*
X75869Y-52755D02*
X75849Y-47245D01*
X75849Y-47245D02*
X73388Y-47245D01*
X73388Y-47245D02*
X72602Y-47245D01*
X72602Y-47245D02*
X70830Y-47245D01*
X86895Y-52805D02*
X86895Y-47295D01*
X86895Y-47295D02*
X85123Y-47295D01*
X85123Y-47295D02*
X81856Y-47295D01*
X81856Y-47295D02*
X81876Y-52805D01*
X81876Y-52805D02*
X84337Y-52805D01*
X84337Y-52805D02*
X85123Y-52805D01*
X85123Y-52805D02*
X86895Y-52805D01*
X80975Y-51128D02*
X80975Y-50850D01*
X80975Y-50850D02*
X80425Y-50850D01*
X80425Y-50850D02*
X80425Y-51128D01*
X80975Y-51800D02*
X80975Y-51522D01*
X80975Y-51800D02*
X80425Y-51800D01*
X80425Y-51800D02*
X80425Y-51522D01*
X80975Y-52228D02*
X80975Y-51950D01*
X80975Y-51950D02*
X80425Y-51950D01*
X80425Y-51950D02*
X80425Y-52228D01*
X80975Y-52900D02*
X80975Y-52622D01*
X80975Y-52900D02*
X80425Y-52900D01*
X80425Y-52900D02*
X80425Y-52622D01*
X80475Y-48947D02*
X80475Y-49225D01*
X80475Y-49225D02*
X81025Y-49225D01*
X81025Y-49225D02*
X81025Y-48947D01*
X80475Y-48275D02*
X80475Y-48553D01*
X80475Y-48275D02*
X81025Y-48275D01*
X81025Y-48275D02*
X81025Y-48553D01*
X80475Y-47847D02*
X80475Y-48125D01*
X80475Y-48125D02*
X81025Y-48125D01*
X81025Y-48125D02*
X81025Y-47847D01*
X80475Y-47175D02*
X80475Y-47453D01*
X80475Y-47175D02*
X81025Y-47175D01*
X81025Y-47175D02*
X81025Y-47453D01*
G54D13*
X77035Y-46877D02*
X79398Y-46877D01*
X79398Y-52585D02*
X79398Y-46877D01*
X77035Y-52585D02*
X77035Y-46877D01*
X79201Y-52585D02*
X79398Y-52585D01*
X77232Y-52585D02*
X77035Y-52585D01*
X77232Y-53570D02*
X77232Y-52585D01*
X79201Y-53570D02*
X79201Y-52585D01*
X79201Y-53570D02*
X77232Y-53570D01*
G54D14*
X80695Y-51439D02*
X80635Y-51345D01*
X80592Y-51439D02*
X80592Y-51242D01*
X80660Y-51242D01*
X80677Y-51251D01*
X80686Y-51260D01*
X80695Y-51279D01*
X80695Y-51307D01*
X80686Y-51326D01*
X80677Y-51335D01*
X80660Y-51345D01*
X80592Y-51345D01*
X80866Y-51439D02*
X80763Y-51439D01*
X80815Y-51439D02*
X80815Y-51242D01*
X80797Y-51270D01*
X80780Y-51289D01*
X80763Y-51298D01*
X80472Y-50584D02*
X80481Y-50575D01*
X80498Y-50565D01*
X80541Y-50565D01*
X80558Y-50575D01*
X80567Y-50584D01*
X80575Y-50603D01*
X80575Y-50622D01*
X80567Y-50651D01*
X80464Y-50765D01*
X80575Y-50765D01*
X80652Y-50765D02*
X80652Y-50565D01*
X80755Y-50765D02*
X80678Y-50651D01*
X80755Y-50565D02*
X80652Y-50679D01*
X80824Y-50584D02*
X80832Y-50575D01*
X80850Y-50565D01*
X80892Y-50565D01*
X80910Y-50575D01*
X80918Y-50584D01*
X80927Y-50603D01*
X80927Y-50622D01*
X80918Y-50651D01*
X80815Y-50765D01*
X80927Y-50765D01*
X80695Y-52539D02*
X80635Y-52445D01*
X80592Y-52539D02*
X80592Y-52342D01*
X80660Y-52342D01*
X80677Y-52351D01*
X80686Y-52360D01*
X80695Y-52379D01*
X80695Y-52407D01*
X80686Y-52426D01*
X80677Y-52435D01*
X80660Y-52445D01*
X80592Y-52445D01*
X80763Y-52360D02*
X80772Y-52351D01*
X80789Y-52342D01*
X80832Y-52342D01*
X80849Y-52351D01*
X80857Y-52360D01*
X80866Y-52379D01*
X80866Y-52398D01*
X80857Y-52426D01*
X80755Y-52539D01*
X80866Y-52539D01*
X80636Y-53190D02*
X80533Y-53190D01*
X80585Y-53190D02*
X80585Y-52990D01*
X80567Y-53019D01*
X80550Y-53038D01*
X80533Y-53047D01*
X80713Y-53190D02*
X80713Y-52990D01*
X80816Y-53190D02*
X80739Y-53076D01*
X80816Y-52990D02*
X80713Y-53104D01*
X80695Y-48814D02*
X80635Y-48720D01*
X80592Y-48814D02*
X80592Y-48617D01*
X80660Y-48617D01*
X80677Y-48626D01*
X80686Y-48635D01*
X80695Y-48654D01*
X80695Y-48682D01*
X80686Y-48701D01*
X80677Y-48710D01*
X80660Y-48720D01*
X80592Y-48720D01*
X80755Y-48617D02*
X80866Y-48617D01*
X80806Y-48692D01*
X80832Y-48692D01*
X80849Y-48701D01*
X80857Y-48710D01*
X80866Y-48729D01*
X80866Y-48776D01*
X80857Y-48795D01*
X80849Y-48804D01*
X80832Y-48814D01*
X80780Y-48814D01*
X80763Y-48804D01*
X80755Y-48795D01*
X79872Y-48959D02*
X79881Y-48950D01*
X79898Y-48940D01*
X79941Y-48940D01*
X79958Y-48950D01*
X79967Y-48959D01*
X79975Y-48978D01*
X79975Y-48997D01*
X79967Y-49026D01*
X79864Y-49140D01*
X79975Y-49140D01*
X80052Y-49140D02*
X80052Y-48940D01*
X80155Y-49140D02*
X80078Y-49026D01*
X80155Y-48940D02*
X80052Y-49054D01*
X80224Y-48959D02*
X80232Y-48950D01*
X80250Y-48940D01*
X80292Y-48940D01*
X80310Y-48950D01*
X80318Y-48959D01*
X80327Y-48978D01*
X80327Y-48997D01*
X80318Y-49026D01*
X80215Y-49140D01*
X80327Y-49140D01*
X80695Y-47714D02*
X80635Y-47620D01*
X80592Y-47714D02*
X80592Y-47517D01*
X80660Y-47517D01*
X80677Y-47526D01*
X80686Y-47535D01*
X80695Y-47554D01*
X80695Y-47582D01*
X80686Y-47601D01*
X80677Y-47610D01*
X80660Y-47620D01*
X80592Y-47620D01*
X80849Y-47582D02*
X80849Y-47714D01*
X80806Y-47507D02*
X80763Y-47648D01*
X80875Y-47648D01*
X80711Y-47065D02*
X80608Y-47065D01*
X80660Y-47065D02*
X80660Y-46865D01*
X80642Y-46894D01*
X80625Y-46913D01*
X80608Y-46922D01*
X80788Y-47065D02*
X80788Y-46865D01*
X80891Y-47065D02*
X80814Y-46951D01*
X80891Y-46865D02*
X80788Y-46979D01*
%LPC*%
G54D15*
X73014Y-47440D03*
X72700Y-50000D03*
X73014Y-52559D03*
G54D16*
X74196Y-51340D03*
X75180Y-48659D03*
X75180Y-51340D03*
X74196Y-49490D03*
X74196Y-50509D03*
X74196Y-48659D03*
G54D15*
X84710Y-52609D03*
X85025Y-50050D03*
X84710Y-47490D03*
G54D16*
X83528Y-48709D03*
X82544Y-51390D03*
X82544Y-48709D03*
X83528Y-50559D03*
X83528Y-49540D03*
X83528Y-51390D03*
G54D17*
X80700Y-51025D03*
X80700Y-51625D03*
X80700Y-52125D03*
X80700Y-52725D03*
X80750Y-49050D03*
X80750Y-48450D03*
X80750Y-47950D03*
X80750Y-47350D03*
G54D18*
X76760Y-50971D03*
G54D19*
X79614Y-47979D03*
G54D18*
X79673Y-51640D03*
G54D20*
X78177Y-51207D03*
X78177Y-48451D03*
M02*
